<svg preserveAspectRatio="none" width="29" height="30" viewBox="0 0 29 30" fill="none" xmlns="http://www.w3.org/2000/svg">
<path d="M25.4608 8.90795C25.3291 8.38532 25.0717 7.9087 24.7143 7.52553C24.3569 7.14235 23.9119 6.86599 23.4236 6.72394C21.613 6.19216 14.3694 6.1835 14.3694 6.1835C14.3694 6.1835 7.12708 6.17484 5.31533 6.68313C4.82733 6.83171 4.38323 7.11199 4.02568 7.49704C3.66812 7.8821 3.4091 8.35901 3.2735 8.88198C2.79599 10.8187 2.79137 14.8355 2.79137 14.8355C2.79137 14.8355 2.78674 18.872 3.26078 20.7889C3.5267 21.8488 4.30713 22.686 5.29914 22.9717C7.12823 23.5035 14.3521 23.5121 14.3521 23.5121C14.3521 23.5121 21.5956 23.5208 23.4062 23.0137C23.8947 22.8719 24.3401 22.5962 24.6984 22.2138C25.0567 21.8314 25.3155 21.3556 25.4492 20.8334C25.9279 18.898 25.9313 14.8824 25.9313 14.8824C25.9313 14.8824 25.9545 10.8446 25.4608 8.90795V8.90795ZM12.0524 18.5567L12.0582 11.1365L18.0785 14.8528L12.0524 18.5567V18.5567Z" fill="white"/>
</svg>
