<svg preserveAspectRatio="none" width="29" height="30" viewBox="0 0 29 30" fill="none" xmlns="http://www.w3.org/2000/svg">
<path d="M9.76099 2.4734H19.473C23.1728 2.4734 26.1789 5.68882 26.1789 9.64626V20.0345C26.1789 21.9369 25.4724 23.7613 24.2148 25.1065C22.9572 26.4517 21.2515 27.2074 19.473 27.2074H9.76099C6.06119 27.2074 3.0551 23.992 3.0551 20.0345V9.64626C3.0551 7.7439 3.76161 5.91945 5.01921 4.57428C6.27681 3.22911 7.98248 2.4734 9.76099 2.4734V2.4734ZM9.52976 4.9468C8.42585 4.9468 7.36716 5.41586 6.58658 6.25079C5.806 7.08573 5.36748 8.21814 5.36748 9.39892V20.2819C5.36748 22.7429 7.22894 24.734 9.52976 24.734H19.7042C20.8081 24.734 21.8668 24.2649 22.6474 23.43C23.428 22.5951 23.8665 21.4626 23.8665 20.2819V9.39892C23.8665 6.93788 22.005 4.9468 19.7042 4.9468H9.52976ZM20.687 6.80185C21.0703 6.80185 21.4379 6.96472 21.7089 7.25462C21.9799 7.54453 22.1322 7.93773 22.1322 8.34772C22.1322 8.75771 21.9799 9.15091 21.7089 9.44082C21.4379 9.73073 21.0703 9.8936 20.687 9.8936C20.3037 9.8936 19.9361 9.73073 19.665 9.44082C19.394 9.15091 19.2417 8.75771 19.2417 8.34772C19.2417 7.93773 19.394 7.54453 19.665 7.25462C19.9361 6.96472 20.3037 6.80185 20.687 6.80185ZM14.617 8.6569C16.1502 8.6569 17.6206 9.30837 18.7047 10.468C19.7889 11.6276 20.3979 13.2004 20.3979 14.8404C20.3979 16.4804 19.7889 18.0532 18.7047 19.2128C17.6206 20.3724 16.1502 21.0239 14.617 21.0239C13.0838 21.0239 11.6134 20.3724 10.5292 19.2128C9.4451 18.0532 8.83604 16.4804 8.83604 14.8404C8.83604 13.2004 9.4451 11.6276 10.5292 10.468C11.6134 9.30837 13.0838 8.6569 14.617 8.6569V8.6569ZM14.617 11.1303C13.6971 11.1303 12.8148 11.5212 12.1643 12.217C11.5139 12.9127 11.1484 13.8564 11.1484 14.8404C11.1484 15.8244 11.5139 16.7681 12.1643 17.4638C12.8148 18.1596 13.6971 18.5505 14.617 18.5505C15.5369 18.5505 16.4192 18.1596 17.0696 17.4638C17.7201 16.7681 18.0856 15.8244 18.0856 14.8404C18.0856 13.8564 17.7201 12.9127 17.0696 12.217C16.4192 11.5212 15.5369 11.1303 14.617 11.1303Z" fill="white"/>
</svg>
