<svg preserveAspectRatio="none" width="28" height="30" viewBox="0 0 28 30" fill="none" xmlns="http://www.w3.org/2000/svg">
<path d="M26.2156 7.4202C25.3253 7.85304 24.3657 8.13748 23.3714 8.27352C24.3888 7.61807 25.175 6.57924 25.545 5.33018C24.5854 5.94853 23.5217 6.38137 22.4002 6.62871C21.4868 5.56515 20.2034 4.9468 18.7466 4.9468C16.0296 4.9468 13.8097 7.32126 13.8097 10.2522C13.8097 10.6727 13.8559 11.0808 13.9369 11.4642C9.82083 11.2416 6.15571 9.12684 3.71615 5.92379C3.28836 6.70291 3.04556 7.61807 3.04556 8.5827C3.04556 10.4254 3.91271 12.0578 5.25388 12.9853C4.43299 12.9853 3.66991 12.738 2.99932 12.367V12.4041C2.99932 14.9764 4.71048 17.1283 6.97661 17.6106C6.24905 17.8236 5.48523 17.8532 4.74516 17.6972C5.05919 18.7514 5.6742 19.6739 6.50374 20.335C7.33329 20.996 8.33564 21.3624 9.36992 21.3825C7.61671 22.8671 5.4435 23.6696 3.20743 23.6581C2.81433 23.6581 2.42122 23.6333 2.02812 23.5839C4.22488 25.0926 6.83786 25.9707 9.63584 25.9707C18.7466 25.9707 23.7529 17.8827 23.7529 10.8706C23.7529 10.6356 23.7529 10.413 23.7413 10.178C24.7125 9.43602 25.545 8.49613 26.2156 7.4202V7.4202Z" fill="white"/>
</svg>
