<svg preserveAspectRatio="none" width="28" height="30" viewBox="0 0 28 30" fill="none" xmlns="http://www.w3.org/2000/svg">
<path d="M13.8743 2.52288C7.51523 2.52288 2.31238 8.07566 2.31238 14.9146C2.31238 21.0981 6.54403 26.2304 12.0706 27.1579V18.501H9.13389V14.9146H12.0706V12.1815C12.0706 9.07739 13.7933 7.37075 16.441 7.37075C17.7012 7.37075 19.0193 7.60572 19.0193 7.60572V10.6604H17.5625C16.1288 10.6604 15.6779 11.6126 15.6779 12.5896V14.9146H18.8921L18.3718 18.501H15.6779V27.1579C18.4024 26.6977 20.8833 25.2108 22.6728 22.9656C24.4622 20.7204 25.4423 17.8649 25.4362 14.9146C25.4362 8.07566 20.2333 2.52288 13.8743 2.52288V2.52288Z" fill="white"/>
</svg>
