<svg preserveAspectRatio="none" width="16" height="19" viewBox="0 0 16 19" fill="none" xmlns="http://www.w3.org/2000/svg">
<path d="M8 10.2308C9.76731 10.2308 11.2 8.92206 11.2 7.30769C11.2 5.69332 9.76731 4.38462 8 4.38462C6.23269 4.38462 4.8 5.69332 4.8 7.30769C4.8 8.92206 6.23269 10.2308 8 10.2308Z" stroke="black" stroke-opacity="0.6" stroke-width="1.5" stroke-linecap="round" stroke-linejoin="round"/>
<path d="M16 7.30769C16 13.8846 8 19 8 19C8 19 0 13.8846 0 7.30769C0 5.36957 0.842855 3.51083 2.34315 2.14037C3.84344 0.769915 5.87827 0 8 0C10.1217 0 12.1566 0.769915 13.6569 2.14037C15.1571 3.51083 16 5.36957 16 7.30769Z" stroke="black" stroke-opacity="0.6" stroke-width="1.5" stroke-linecap="round" stroke-linejoin="round"/>
</svg>
