<svg preserveAspectRatio="none" width="18" height="17" viewBox="0 0 18 17" fill="none" xmlns="http://www.w3.org/2000/svg">
<path d="M16.5 9.40075V16.1507C16.5 16.3497 16.421 16.5404 16.2803 16.6811C16.1397 16.8217 15.9489 16.9007 15.75 16.9007H2.25C2.05109 16.9007 1.86032 16.8217 1.71967 16.6811C1.57902 16.5404 1.5 16.3497 1.5 16.1507V9.40075M9 4.90074V16.9007M9 4.90074C9 4.90074 12.182 4.90074 13.2426 3.84008C13.6642 3.41804 13.9009 2.84588 13.9007 2.24936C13.9006 1.65284 13.6635 1.08081 13.2417 0.65901C12.8199 0.23721 12.2479 0.000169839 11.6514 9.12318e-08C11.0549 -0.000169657 10.4827 0.236545 10.0607 0.658105C9 1.71876 9 4.90074 9 4.90074ZM9 4.90074C9 4.90074 5.81802 4.90074 4.75736 3.84008C4.3358 3.41804 4.09909 2.84588 4.09926 2.24936C4.09942 1.65284 4.33647 1.08081 4.75827 0.65901C5.18007 0.23721 5.7521 0.000169839 6.34862 9.12318e-08C6.94513 -0.000169657 7.5173 0.236545 7.93934 0.658105C9 1.71876 9 4.90074 9 4.90074ZM0.749999 4.90074H17.25C17.6642 4.90074 18 5.23653 18 5.65074V8.65075C18 9.06496 17.6642 9.40075 17.25 9.40075H0.749999C0.335786 9.40075 0 9.06496 0 8.65075V5.65074C0 5.23653 0.335786 4.90074 0.749999 4.90074Z" stroke="#2474A6" stroke-width="1.5" stroke-linecap="round" stroke-linejoin="round"/>
</svg>
