<svg preserveAspectRatio="none" width="18" height="19" viewBox="0 0 18 19" fill="none" xmlns="http://www.w3.org/2000/svg">
<path d="M5.75165 18.7511H11.7516M13.9484 2.6226e-06C15.4746 0.963433 16.7048 2.32983 17.5033 3.94834M0 3.94834C0.79852 2.32982 2.02874 0.96343 3.55486 0M2.02068 8.2511C2.01821 7.36554 2.1905 6.4882 2.52767 5.66935C2.86484 4.85049 3.36028 4.10621 3.98559 3.47916C4.6109 2.8521 5.35379 2.35459 6.1717 2.01513C6.98961 1.67567 7.86646 1.50094 8.75202 1.50094C9.63758 1.50094 10.5144 1.67567 11.3323 2.01513C12.1503 2.35459 12.8931 2.8521 13.5185 3.47916C14.1438 4.10621 14.6392 4.85049 14.9764 5.66935C15.3135 6.4882 15.4858 7.36554 15.4834 8.2511C15.4834 11.6088 16.1859 13.5572 16.8046 14.6222C16.8712 14.736 16.9067 14.8653 16.9074 14.9972C16.9081 15.1291 16.874 15.2588 16.8086 15.3733C16.7432 15.4878 16.6487 15.583 16.5347 15.6493C16.4207 15.7157 16.2913 15.7508 16.1594 15.7511H1.34387C1.21198 15.7508 1.08251 15.7156 0.96853 15.6493C0.854548 15.5829 0.760079 15.4877 0.694655 15.3732C0.62923 15.2587 0.595164 15.1289 0.595892 14.997C0.596621 14.8652 0.632118 14.7358 0.698804 14.622C1.31786 13.557 2.02068 11.6086 2.02068 8.2511Z" stroke="white" stroke-width="1.5" stroke-linecap="round" stroke-linejoin="round"/>
</svg>
